<?xml version="1.0" encoding="utf-8"?>
<!-- Generator: Adobe Illustrator 22.1.0, SVG Export Plug-In . SVG Version: 6.00 Build 0)  -->
<svg version="1.1" id="Capa_1" xmlns="http://www.w3.org/2000/svg" xmlns:xlink="http://www.w3.org/1999/xlink" x="0px" y="0px"
	 viewBox="0 0 20.3 20.3" style="enable-background:new 0 0 20.3 20.3;" xml:space="preserve">
<style type="text/css">
	.st0{fill:#FFFFFF;}
</style>
<path class="st0" d="M20.3,19.2l-5.5-5.5c1.2-1.5,1.9-3.3,1.9-5.4C16.7,3.8,13,0,8.4,0C3.8,0,0,3.8,0,8.4c0,4.6,3.8,8.4,8.4,8.4
	c2,0,3.9-0.7,5.4-1.9l5.5,5.5L20.3,19.2z M1.5,8.4c0-3.8,3.1-6.9,6.9-6.9c3.8,0,6.9,3.1,6.9,6.9c0,3.8-3.1,6.9-6.9,6.9
	C4.6,15.2,1.5,12.1,1.5,8.4z"/>
</svg>
